<svg class="img-fluid" id="outputsvg" xmlns="http://www.w3.org/2000/svg" style="transform: matrix(1, 0, 0, 1, 0, 0); transform-origin: 50% 50%; cursor: move; transition: transform 200ms ease-in-out;" width="875" height="230" viewBox="0 0 8750 2300"><g id="l23fQLmoABMMsGoZl9cJd4e" fill="rgb(0,0,0)" style="transform: none;"><g style="transform: none;"><path id="p1HfY3euEj" d="M5352 2280 c-31 -13 -55 -73 -50 -127 3 -38 1 -43 -18 -43 -14 0 -21 -6 -20 -17 0 -11 -10 -21 -29 -27 -16 -6 -34 -16 -40 -22 -5 -6 -62 -49 -125 -95 -315 -232 -360 -260 -391 -241 -14 9 -24 10 -33 3 -6 -5 -34 -11 -61 -13 -43 -3 -52 -7 -63 -30 -19 -40 -52 -36 -107 12 -25 22 -50 40 -55 40 -6 0 -72 53 -147 118 -76 64 -147 123 -158 131 -27 19 35 -40 130 -124 87 -76 195 -180 195 -189 0 -7 -48 -14 -145 -21 l-80 -5 -75 130 c-40 71 -77 130 -82 130 -14 0 -9 -60 8 -93 27 -52 88 -152 97 -155 4 -2 7 -10 7 -17 0 -7 6 -16 13 -19 6 -4 2 -4 -10 -2 -26 5 -27 3 -12 -27 10 -22 10 -22 -10 1 -26 30 -55 30 -46 0 6 -22 5 -22 -8 -5 -16 19 -12 19 -174 -18 -13 -3 -23 -12 -23 -20 0 -11 13 -15 53 -15 l52 -1 -40 -24 -40 -25 -21 36 c-24 39 -23 39 -64 30 -27 -5 -30 -9 -24 -31 4 -15 2 -25 -5 -25 -6 0 -8 7 -5 15 5 11 -1 15 -20 15 -23 0 -26 -4 -26 -35 0 -34 1 -35 39 -35 60 0 58 -17 -3 -47 -44 -21 -59 -24 -68 -15 -9 9 -8 12 5 12 13 0 17 9 17 33 0 27 -19 79 -20 53 0 -5 -11 1 -25 14 -26 25 -32 21 -15 -10 8 -15 6 -20 -10 -25 -11 -3 -20 -11 -20 -16 0 -5 -4 -9 -9 -9 -15 0 -33 68 -35 126 0 30 -2 49 -4 44 -2 -6 -8 -10 -13 -10 -9 0 0 32 12 40 8 5 -13 109 -26 129 -11 18 -44 12 -55 -9 -29 -55 -9 -151 52 -249 15 -24 25 -48 22 -52 -3 -5 -21 -9 -40 -9 -19 0 -34 -4 -34 -10 0 -5 -13 -10 -29 -10 -24 0 -28 -3 -24 -20 5 -20 23 -28 23 -10 0 6 7 10 15 10 8 0 15 -5 15 -11 0 -6 7 -9 15 -5 8 3 15 2 15 -3 0 -5 -30 -20 -67 -34 -38 -14 -62 -26 -55 -26 7 -1 10 -6 7 -12 -4 -5 25 6 65 26 40 20 75 33 79 30 3 -4 -1 -12 -10 -18 -20 -15 -32 -51 -33 -102 -1 -38 -3 -40 -76 -81 -41 -24 -91 -48 -110 -55 -19 -6 -37 -15 -40 -18 -11 -13 -91 -58 -535 -304 l-390 -215 -135 -6 c-123 -6 -890 -54 -896 -56 -1 0 1 -11 3 -24 6 -30 -5 -37 -75 -41 -31 -2 -88 -7 -127 -10 -38 -3 -164 -10 -280 -15 -414 -20 -647 -36 -667 -45 -11 -4 -18 -3 -18 5 0 6 6 8 13 4 6 -4 5 0 -3 9 -8 8 -40 18 -71 22 -56 7 -56 7 -62 -21 -5 -26 4 -38 76 -109 45 -45 103 -91 128 -103 70 -34 148 -28 239 19 19 9 66 25 103 33 68 16 346 35 510 36 51 0 87 4 87 10 0 6 41 10 103 10 56 0 152 5 212 10 61 5 200 14 310 20 110 6 272 15 360 20 613 35 993 53 1460 70 165 6 329 15 365 21 88 13 211 5 226 -16 6 -8 25 -15 42 -15 28 0 31 3 34 38 2 27 9 40 25 47 13 5 28 23 35 40 l12 30 3 -26 c6 -42 32 -56 108 -63 61 -5 76 -3 115 17 29 15 52 37 65 60 15 27 30 41 58 49 20 6 37 17 37 25 0 7 11 13 25 13 16 0 25 -6 25 -15 0 -8 9 -15 19 -15 11 0 21 -5 23 -12 2 -6 37 -13 86 -16 79 -4 82 -6 76 -26 -8 -24 -44 -79 -56 -84 -14 -6 -8 -50 8 -56 40 -15 73 -6 108 31 l36 38 1782 0 c1678 0 1785 -1 1817 -17 47 -25 61 -23 61 8 0 63 -30 82 -155 99 -49 7 -77 13 -61 14 26 1 23 6 -55 71 -46 38 -90 69 -97 70 -9 0 -12 -15 -10 -52 l3 -53 -105 -4 c-162 -6 -604 -1 -612 7 -4 4 -8 23 -11 42 l-4 35 -1 -40 -2 -40 -205 1 -206 2 -30 31 -29 31 -296 0 c-285 0 -298 1 -331 21 -26 16 -37 19 -46 10 -8 -8 -6 -11 7 -11 9 0 14 -4 11 -10 -3 -5 -22 -10 -41 -10 -28 0 -101 40 -349 187 -172 104 -314 191 -314 196 -2 12 29 8 54 -9 13 -9 32 -14 41 -12 20 4 -141 98 -168 98 -9 0 -18 4 -20 9 -3 9 -238 144 -273 157 -11 5 -15 -1 -15 -18 0 -25 32 -48 65 -48 8 0 15 -6 15 -13 0 -6 54 -44 120 -82 66 -39 120 -76 120 -83 0 -7 4 -11 9 -7 12 7 188 -95 583 -337 21 -13 38 -26 38 -30 0 -4 -114 -5 -252 -3 -139 2 -432 4 -651 4 l-399 1 8 43 c5 23 9 59 9 79 0 41 0 41 101 75 61 20 62 20 81 2 12 -13 38 -21 73 -24 30 -2 71 -9 90 -15 53 -15 60 -13 60 20 0 22 -5 30 -17 30 -20 0 -174 38 -181 44 -2 2 3 15 11 28 24 38 40 125 33 180 -11 80 -32 118 -107 193 -107 106 -119 119 -119 130 1 6 9 0 19 -12 10 -12 34 -30 54 -41 20 -10 34 -22 30 -26 -3 -3 3 -6 15 -6 38 0 24 17 -54 64 -41 26 -72 41 -68 35 4 -7 2 -10 -7 -7 -8 3 -13 11 -11 18 2 7 -3 10 -12 7 -26 -10 -36 15 -24 63 10 41 175 347 203 378 9 10 16 9 37 -8 33 -25 58 -26 58 -1 0 11 5 23 10 26 6 3 10 23 10 44 l0 39 68 6 c106 11 122 15 122 37 0 12 -7 19 -20 19 -13 0 -21 9 -26 28 -27 126 -81 174 -162 142z m-122 -240 c-13 -8 -12 -10 3 -10 21 0 21 -7 -1 -42 -30 -47 -160 -223 -187 -252 -14 -15 -25 -30 -25 -33 0 -11 -52 -74 -57 -70 -2 3 5 24 15 46 11 23 17 41 12 41 -4 0 -15 -18 -24 -41 -16 -39 -36 -45 -36 -10 0 21 -35 31 -106 31 -24 0 -44 4 -44 8 0 5 84 71 188 147 103 77 203 152 222 167 19 15 39 28 45 28 5 0 3 -5 -5 -10z m-590 -557 c0 -23 -1 -23 -27 -8 -16 8 -43 28 -61 43 -28 25 -31 33 -26 61 l7 33 53 -53 c34 -34 54 -62 54 -76z m-554 22 c4 -8 14 -15 24 -15 11 0 22 -5 26 -11 4 -7 27 -9 63 -6 56 4 111 -12 111 -33 0 -6 9 -10 19 -10 11 0 21 -4 23 -8 5 -14 109 -82 124 -82 8 0 14 -4 14 -10 0 -5 11 -10 25 -10 14 0 25 -6 25 -13 0 -27 46 -41 150 -48 154 -9 199 -32 153 -77 -7 -7 -13 -21 -13 -31 0 -9 -13 -21 -30 -28 -16 -6 -33 -20 -37 -30 -9 -25 -23 -33 -60 -33 -40 0 -41 9 -7 49 18 22 24 40 22 63 -3 33 -3 33 -73 41 -169 18 -229 27 -239 37 -5 5 -50 10 -98 10 l-88 0 0 -37 c0 -32 5 -41 33 -58 l32 -20 -37 -3 c-36 -3 -38 -5 -38 -38 0 -19 5 -34 10 -34 14 0 1 -52 -16 -66 -11 -9 -21 -74 -11 -74 1 0 99 -9 216 -20 229 -22 300 -35 308 -57 10 -26 -27 -52 -85 -59 -32 -4 -64 -15 -76 -25 -11 -11 -23 -19 -28 -19 -4 0 -8 -11 -8 -25 0 -20 -5 -25 -25 -25 -14 0 -28 -7 -31 -15 -4 -8 -11 -15 -18 -15 -6 0 -18 -9 -26 -20 -24 -34 -39 -25 -29 18 21 92 2 135 -66 147 -22 4 -69 21 -104 36 -35 16 -79 29 -97 29 -29 0 -34 -4 -39 -33 -7 -38 -40 -57 -96 -57 -54 0 -89 -16 -89 -40 0 -11 4 -20 9 -20 13 0 22 -43 10 -55 -7 -7 -8 -4 -3 10 7 17 6 18 -8 5 -14 -13 -14 -17 -2 -31 13 -15 12 -19 -12 -38 -33 -26 -39 -26 -71 -1 -14 11 -36 20 -49 20 -13 0 -24 4 -24 9 0 5 -41 6 -91 4 -81 -4 -91 -3 -86 11 5 14 -3 16 -53 16 -53 0 -60 -2 -60 -20 0 -11 -3 -20 -7 -20 -21 0 -678 -40 -743 -46 -41 -3 -83 -8 -94 -11 -36 -10 -4 19 48 43 50 24 72 37 171 99 28 17 79 50 115 72 36 22 149 93 251 157 147 91 197 117 233 121 36 5 46 3 46 -9 0 -11 21 -15 88 -19 108 -7 162 -16 162 -28 0 -5 27 -9 60 -9 l60 0 0 -35 c0 -34 1 -35 39 -35 61 0 71 7 71 51 l0 39 -55 0 c-30 0 -55 5 -55 10 0 6 16 10 35 10 33 0 35 2 35 35 0 28 -5 37 -30 50 -16 8 -40 15 -55 15 -17 0 -25 5 -25 18 -1 30 -28 55 -67 61 l-37 6 69 43 69 44 18 -24 c12 -15 18 -41 18 -75 l0 -53 35 0 c19 0 35 5 35 10 0 6 9 10 19 10 11 0 23 -4 26 -10 3 -5 18 -10 32 -10 l26 0 -6 -130 -6 -130 40 0 40 0 -2 225 -1 225 -30 0 c-20 0 -37 -9 -55 -30 -34 -41 -67 -40 -84 3 -7 17 -18 35 -23 40 -8 5 -8 9 0 15 108 72 124 87 124 109 0 26 27 32 36 8z m714 -107 c0 -7 3 -23 6 -36 8 -29 -13 -22 -57 19 l-31 29 41 0 c26 0 41 -5 41 -12z m325 -126 c22 -8 60 -20 85 -27 45 -12 43 -17 -12 -29 -24 -5 -28 -11 -28 -40 0 -20 8 -40 20 -51 24 -22 17 -35 -17 -35 -32 0 -93 62 -93 95 0 17 -8 26 -30 34 -34 11 -39 30 -10 38 16 4 20 14 21 52 l0 46 12 -34 c9 -26 21 -37 52 -49z m-1412 -124 l22 -18 -27 0 c-16 0 -28 5 -28 10 0 6 -24 10 -52 10 l-53 1 55 35 55 35 3 -28 c2 -15 13 -36 25 -45z m-225 20 c-7 -22 -128 -90 -147 -83 -12 5 2 18 54 51 71 44 100 54 93 32z m2210 -28 c18 -11 40 -20 49 -20 13 0 14 -3 5 -12 -9 -9 -20 -7 -47 8 -37 20 -64 44 -49 44 5 0 24 -9 42 -20z m-2358 -68 c0 -8 -13 -16 -449 -286 l-325 -200 -79 -4 c-54 -3 -78 -1 -73 6 3 6 70 45 149 88 201 109 210 114 232 127 11 7 61 34 110 61 50 27 152 84 227 127 76 43 146 80 155 82 30 8 53 7 53 -1z m1738 -109 c-4 -24 -92 -67 -121 -59 -12 3 -27 17 -34 31 -10 24 -10 25 18 25 16 0 29 5 29 10 0 6 25 10 56 10 47 0 55 -3 52 -17z m-143 -150 c-22 -3 -44 -8 -49 -13 -11 -11 -38 -1 -30 11 3 5 31 8 62 7 47 -1 50 -2 17 -5z m61 -89 c-3 -9 -6 -24 -6 -34 0 -15 -7 -17 -47 -12 -57 6 -57 5 -48 31 6 19 20 24 89 29 13 2 16 -3 12 -14z m3480 -99 c18 -15 18 -15 -5 -13 -14 2 -26 9 -29 16 -5 17 10 15 34 -3z"></path><path id="pctkAaEaA" d="M3497 973 c-20 -3 -27 -9 -23 -19 3 -8 1 -14 -4 -14 -6 0 -10 -10 -10 -21 0 -20 4 -21 46 -15 26 3 55 6 65 6 15 0 19 8 19 35 0 33 -2 35 -32 34 -18 -1 -46 -4 -61 -6z"></path><path id="p1FWGVCI0R" d="M3653 673 c9 -2 25 -2 35 0 9 3 1 5 -18 5 -19 0 -27 -2 -17 -5z"></path><path id="p10PVsKEbn" d="M3770 2237 c-28 -14 -55 -64 -65 -120 -6 -31 -10 -37 -26 -32 -17 6 -19 1 -19 -35 l0 -42 66 7 c36 4 92 4 125 0 l59 -7 0 -38 c0 -29 6 -41 25 -54 13 -9 34 -16 45 -16 19 0 19 2 6 23 -20 29 -20 38 -4 48 9 6 6 9 -11 9 -20 0 -22 4 -17 24 8 32 -2 56 -20 49 -11 -4 -14 5 -14 38 0 124 -66 188 -150 146z"></path><path id="pBj3hlOFr" d="M3990 2018 c0 -9 7 -19 16 -22 25 -10 27 -1 4 19 -17 15 -20 16 -20 3z"></path><path id="p14OQ29HuC" d="M3941 1697 c2 -1 15 -11 28 -22 l24 -20 -14 23 c-8 12 -20 22 -28 22 -8 0 -12 -1 -10 -3z"></path><path id="pF1gzZy98" d="M3440 1492 c0 -5 7 -17 15 -28 15 -19 20 -8 9 20 -6 17 -24 22 -24 8z"></path><path id="p183eKnzS9" d="M5270 1375 c0 -9 12 -21 28 -28 15 -6 31 -17 35 -24 9 -15 67 -18 67 -3 0 8 -110 70 -125 70 -3 0 -5 -7 -5 -15z"></path><path id="p1ArZSJqhv" d="M2963 1109 c-14 -14 -185 -21 -194 -8 -3 6 -15 6 -30 1 -36 -14 -189 -14 -205 -1 -11 9 -14 6 -14 -15 l0 -26 198 -1 c357 -1 477 4 467 22 -3 4 5 10 17 12 13 2 -32 5 -100 6 -79 1 -121 5 -117 11 8 13 -8 13 -22 -1z"></path><path id="pLms7S1oL" d="M5723 1013 c-4 -16 -8 -52 -8 -80 0 -36 -4 -53 -12 -53 -7 0 -13 -7 -13 -15 0 -17 59 -30 95 -21 28 7 34 31 10 40 -8 3 -15 15 -15 27 0 12 -12 33 -26 46 -21 19 -25 30 -20 54 7 37 -1 38 -11 2z"></path><path id="pAbFhvQI5" d="M5925 1021 c-5 -9 32 -27 48 -23 4 1 7 -2 7 -7 0 -8 161 -101 175 -101 23 0 -12 26 -105 78 -119 67 -116 66 -125 53z"></path><path id="ptnyPztVM" d="M6182 879 c2 -6 28 -24 58 -41 30 -16 63 -36 74 -44 22 -15 46 -19 46 -6 0 8 -162 102 -175 102 -4 0 -5 -5 -3 -11z"></path><path id="pYfJTvFjd" d="M6380 770 c0 -8 51 -40 65 -40 14 0 2 18 -24 33 -33 20 -41 21 -41 7z"></path><path id="pAT93lmm1" d="M4326 434 c-13 -33 -6 -54 17 -55 22 -1 22 -1 -2 -8 -60 -17 -41 -85 22 -79 41 4 57 31 34 56 -24 26 -21 32 13 32 28 0 30 3 30 35 l0 35 -54 0 c-40 0 -55 -4 -60 -16z"></path><path id="pjKikTDKN" d="M4730 431 c0 -11 9 -21 21 -24 25 -7 16 -27 -11 -27 -11 0 -25 -10 -31 -22 -10 -18 -8 -24 7 -35 25 -18 48 -16 74 5 19 15 21 22 11 40 -15 28 -14 42 4 42 8 0 15 9 15 20 0 17 -7 20 -45 20 -37 0 -45 -3 -45 -19z"></path><path id="p1BnFa8JYJ" d="M5370 417 c0 -7 14 -18 31 -24 25 -10 34 -9 50 5 30 25 23 32 -31 32 -34 0 -50 -4 -50 -13z"></path><path id="p1DDdZup8V" d="M3612 343 c2 -31 7 -39 26 -41 12 -2 22 -10 22 -18 0 -10 -14 -14 -55 -14 l-55 0 0 -34 c0 -32 3 -35 38 -41 37 -6 37 -7 34 -45 -3 -30 0 -40 10 -40 18 0 78 179 78 233 l0 37 -51 0 -50 0 3 -37z"></path><path id="pSG9w6aJw" d="M3476 289 c-8 -84 -7 -151 3 -167 5 -8 22 -12 42 -10 29 3 34 7 37 31 2 16 -2 35 -8 42 -8 10 -10 38 -5 90 l7 75 -34 0 -35 0 -7 -61z"></path></g></g><g id="l7NdOPE29HsJpBlvq9sMEHb" fill="rgb(255,255,255)" style="transform: none;"><g style="transform: none;"><path id="plEh3kOl8" d="M5307 2216 c-10 -25 -8 -34 2 -17 7 11 14 7 30 -20 13 -21 21 -27 21 -17 0 9 -10 29 -23 44 -21 24 -24 25 -30 10z"></path><path id="p17vfqambr" d="M3719 2168 l-12 -23 24 20 c13 11 21 16 17 11 -4 -5 -3 -15 3 -23 8 -9 8 -17 1 -25 -7 -9 -6 -17 4 -26 12 -11 14 -8 14 18 0 34 -15 70 -30 70 -5 0 -15 -10 -21 -22z"></path><path id="p2hIDK6ip" d="M5307 2153 c-4 -3 -7 -13 -7 -22 0 -14 2 -14 10 -1 7 12 11 10 19 -10 6 -16 10 -19 10 -8 2 35 -16 58 -32 41z"></path><path id="pfzaqdCEb" d="M5423 2088 c-66 -8 -83 -13 -84 -27 0 -12 -2 -12 -9 4 -7 16 -9 12 -9 -18 -1 -26 3 -36 10 -31 7 4 10 1 7 -7 -3 -8 -21 -15 -43 -17 -51 -4 -90 -33 -93 -68 -2 -31 -34 -99 -87 -189 -46 -78 -65 -120 -64 -142 0 -12 3 -10 9 7 8 25 184 338 198 352 13 13 50 -21 57 -53 12 -56 106 -87 178 -60 56 21 83 102 71 207 -8 62 3 58 -141 42z m-103 -123 c0 -8 -4 -15 -10 -15 -5 0 -10 7 -10 15 0 8 5 15 10 15 6 0 10 -7 10 -15z"></path><path id="p134uXBPBJ" d="M3661 1989 c0 -119 13 -159 59 -181 79 -40 166 -12 190 61 7 22 18 41 25 41 11 0 95 -163 95 -184 0 -19 83 -172 102 -188 15 -14 17 -18 5 -18 -8 0 -17 7 -21 15 -3 8 -14 15 -25 15 -26 0 -36 17 -14 23 17 4 17 5 0 6 -10 0 -20 -6 -24 -15 -4 -12 -23 -15 -97 -14 -137 2 -143 1 -160 -16 -9 -8 -16 -11 -16 -5 0 14 -70 -16 -98 -42 -13 -12 -27 -21 -30 -21 -14 2 -52 -20 -53 -30 -1 -6 0 -24 1 -40 1 -16 -2 -26 -8 -22 -18 11 -31 -19 -30 -71 0 -48 1 -51 18 -40 10 6 16 15 13 21 -3 5 -1 6 6 2 6 -4 50 14 99 40 48 26 83 42 77 37 -5 -6 -62 -39 -125 -73 -63 -35 -158 -86 -210 -115 -52 -28 -113 -62 -135 -75 -22 -12 -65 -36 -95 -53 -30 -16 -91 -50 -135 -75 -78 -44 -94 -54 -218 -122 -32 -18 -56 -34 -54 -36 4 -4 32 11 316 170 84 47 158 86 163 86 6 0 50 25 99 56 52 33 95 54 104 50 9 -3 79 34 178 96 166 103 198 126 162 114 -16 -5 -15 -3 5 14 30 25 182 111 187 107 2 -2 -26 -24 -62 -48 -35 -24 -65 -50 -65 -58 0 -9 -8 -11 -27 -7 -18 4 -23 3 -15 -2 15 -10 -108 -91 -673 -442 -170 -105 -321 -199 -335 -208 -14 -9 -37 -23 -51 -32 -48 -29 -124 -73 -194 -113 -119 -69 -155 -97 -155 -118 0 -29 19 -32 127 -21 l98 11 -107 -5 c-60 -3 -108 -1 -108 4 0 14 23 32 43 32 10 0 16 4 13 8 -3 4 16 19 40 33 25 13 50 32 56 42 5 11 33 30 61 43 51 24 73 37 172 99 28 17 79 50 115 72 36 22 149 93 252 157 102 64 190 116 195 116 15 0 63 25 63 33 0 4 12 7 28 7 21 0 24 -2 12 -10 -13 -8 -12 -10 3 -10 9 0 17 5 17 10 0 6 8 10 18 10 14 0 15 -2 2 -10 -13 -8 -12 -10 3 -10 9 0 17 6 17 13 0 8 17 12 48 13 35 1 41 -1 22 -6 -17 -6 -20 -8 -7 -9 10 -1 15 -5 12 -11 -3 -5 -39 -10 -80 -10 l-73 0 -4 -62 c-2 -35 0 -69 5 -76 7 -9 6 -11 -5 -7 -12 5 -16 -15 -21 -123 -7 -151 -3 -176 27 -168 11 3 35 6 53 6 29 0 34 5 61 63 36 75 56 155 50 202 -2 19 -2 35 2 35 17 -1 30 -20 38 -58 9 -37 23 -61 92 -153 14 -19 15 -17 13 28 -2 37 -1 43 6 27 5 -12 14 -25 20 -29 6 -3 11 -26 11 -50 0 -48 16 -67 35 -42 11 15 14 14 33 -6 20 -21 20 -24 6 -39 -14 -14 -14 -16 4 -20 16 -5 21 1 26 24 6 32 -17 82 -27 56 -3 -10 -9 -8 -20 7 -19 25 -14 34 18 30 14 -1 25 2 25 7 0 17 56 29 107 23 l52 -6 12 -60 c16 -80 33 -90 22 -13 -9 68 -11 160 -2 168 3 4 35 -7 70 -23 35 -15 82 -32 104 -36 52 -9 76 -37 68 -79 -9 -45 -76 -186 -89 -186 -20 0 -38 -31 -36 -63 l3 -30 -19 24 c-10 13 -23 36 -30 52 -7 17 -19 27 -32 27 -16 0 -20 -7 -20 -32 l0 -33 -87 -1 c-49 0 -131 -3 -183 -7 -144 -10 -258 -16 -445 -22 -197 -7 -463 -19 -865 -40 -157 -9 -328 -18 -380 -20 -52 -3 -158 -10 -235 -15 -77 -5 -201 -12 -275 -16 -74 -3 -155 -8 -180 -10 -25 -3 -116 -8 -202 -11 -87 -3 -158 -9 -158 -12 0 -3 -35 -7 -78 -9 -396 -14 -544 -31 -616 -70 -17 -9 -39 -17 -50 -19 -10 -2 -31 -12 -46 -23 -16 -11 -41 -20 -56 -20 -15 0 -25 -2 -22 -6 7 -6 365 11 550 27 84 7 133 7 145 1 12 -7 25 -7 37 0 11 6 128 17 260 24 133 7 345 20 471 29 214 14 452 28 955 55 113 6 304 18 424 26 121 7 246 14 279 14 l59 0 -7 -137 c-5 -101 -11 -143 -22 -155 -26 -29 -6 -38 91 -38 110 0 114 3 141 100 9 36 21 70 25 75 5 6 9 13 9 18 1 4 1 8 2 10 0 1 2 11 4 22 2 11 9 39 15 61 12 40 14 42 68 53 65 13 356 31 496 31 80 0 97 -3 108 -18 7 -10 20 -22 28 -27 11 -6 10 -3 -2 12 -10 11 -18 22 -18 25 0 3 66 11 148 17 81 6 170 15 197 19 28 5 93 5 145 1 52 -4 108 -8 123 -8 21 -1 31 -7 35 -24 l6 -22 6 24 5 23 445 3 c758 5 2244 5 2267 1 48 -10 689 -8 863 2 l115 7 0 30 c0 53 -29 60 -285 62 -124 1 -286 3 -360 4 -173 2 -2550 2 -2775 0 -93 -1 -178 -4 -187 -7 -12 -4 -17 2 -20 23 -5 41 -34 42 -52 1 -14 -34 -81 -108 -98 -108 -5 0 0 10 11 21 38 41 48 81 55 219 7 128 12 149 40 150 4 0 5 -10 2 -22 -15 -52 -19 -91 -8 -84 6 3 16 32 22 64 17 81 27 102 49 102 11 0 43 9 70 20 l50 19 15 -21 c12 -17 27 -22 69 -23 49 -2 178 -35 202 -53 6 -4 18 -19 28 -34 11 -18 29 -29 54 -34 21 -4 46 -11 55 -15 9 -5 37 -11 62 -14 53 -5 57 -1 77 89 12 54 11 60 -6 72 -10 7 -24 10 -32 6 -7 -5 -46 -5 -86 -1 -193 19 -227 19 -227 4 0 -19 6 -19 -108 9 -53 14 -113 23 -132 21 -64 -8 -155 -31 -187 -48 -41 -22 -141 -23 -149 -2 -6 15 -70 32 -81 21 -3 -3 1 -14 11 -25 16 -17 14 -20 -26 -60 l-43 -42 38 7 c24 4 47 2 62 -6 22 -12 22 -13 7 -52 -18 -46 -9 -58 45 -58 44 0 63 -9 63 -31 0 -21 -22 -24 -79 -13 -25 5 -35 16 -53 55 -15 30 -35 54 -55 65 -40 22 -51 13 -28 -22 13 -21 19 -24 26 -13 5 8 9 9 9 3 0 -18 -23 -34 -52 -34 -17 0 -28 -5 -28 -13 0 -8 -17 -19 -37 -25 -28 -8 -43 -22 -58 -49 -18 -34 -99 -88 -116 -78 -3 2 -22 5 -43 7 -20 1 -44 10 -52 20 -19 21 -21 19 86 102 53 41 74 64 72 77 -2 11 1 19 5 19 5 0 18 8 29 18 11 11 44 22 74 26 49 6 60 13 98 53 40 45 43 61 11 67 -8 2 -27 8 -43 15 -16 6 -50 15 -75 18 -25 3 -51 10 -57 14 -6 5 -14 6 -18 2 -9 -9 -26 16 -26 39 0 13 11 18 43 21 26 2 14 4 -33 5 -68 2 -76 4 -76 22 0 13 7 20 18 20 17 0 22 10 19 37 -1 8 19 13 56 16 l58 3 -56 2 c-53 2 -56 4 -72 37 -13 28 -22 35 -45 35 -15 0 -32 3 -38 8 -5 4 1 -2 13 -13 13 -12 23 -26 23 -32 0 -13 -28 -25 -40 -18 -5 3 -25 -2 -44 -12 -20 -9 -39 -14 -42 -10 -4 3 -3 36 1 72 4 45 11 65 20 65 8 0 16 -4 19 -9 8 -12 57 -21 184 -31 63 -6 118 -13 123 -16 5 -3 -2 -19 -16 -36 -17 -20 -25 -41 -25 -69 l0 -39 63 0 c66 0 80 5 90 32 3 9 15 22 27 28 20 11 21 10 11 -9 -20 -36 -14 -51 20 -51 22 0 32 5 36 20 3 11 9 20 14 20 9 0 31 71 24 78 -2 2 -18 -3 -34 -11 -33 -16 -41 -8 -16 17 8 8 15 19 15 24 0 5 9 17 20 27 11 10 20 31 20 47 0 26 -2 28 -27 22 -16 -4 -30 -8 -32 -10 -2 -2 -18 4 -35 14 -29 15 -30 17 -8 20 17 3 21 9 18 25 -3 12 -8 43 -11 70 -5 39 -10 47 -28 48 -54 3 -85 16 -92 39 -3 10 -42 53 -85 96 -44 43 -80 85 -80 94 0 13 11 17 52 19 28 1 54 4 57 7 3 3 -23 4 -58 2 -60 -3 -66 -5 -82 -34 -9 -17 -20 -46 -24 -65 -4 -19 -12 -40 -18 -47 -9 -11 0 -24 38 -57 28 -24 70 -54 95 -66 42 -21 61 -35 115 -85 13 -12 30 -24 40 -27 33 -13 2 -27 -62 -27 -69 0 -133 22 -133 46 0 19 -46 47 -65 40 -9 -3 -14 -2 -10 3 3 5 -9 19 -27 31 -32 21 -32 21 -9 1 13 -12 22 -24 19 -26 -5 -6 -90 54 -101 72 -4 7 -14 10 -22 7 -8 -4 -15 -1 -15 5 0 6 -23 22 -51 36 -50 24 -53 24 -80 8 -22 -13 -32 -14 -40 -6 -9 9 -7 11 8 7 41 -11 30 26 -44 147 -41 68 -90 154 -108 190 -18 36 -44 76 -58 89 -20 19 -24 31 -20 61 l5 37 -78 6 c-78 7 -148 18 -191 31 -23 7 -23 6 -22 -86z m101 -497 c4 -12 -1 -18 -13 -19 -16 -2 -17 1 -6 18 14 23 14 23 19 1z m938 -17 c10 -12 10 -18 0 -30 -19 -23 -30 -18 -30 15 0 33 11 38 30 15z m-810 -120 c0 -8 4 -15 8 -15 4 0 13 -13 19 -30 15 -40 11 -38 -21 10 -29 44 -31 50 -16 50 6 0 10 -7 10 -15z m180 -115 c-14 -33 -38 -46 -46 -25 -4 8 -10 12 -15 9 -5 -3 -9 1 -9 8 0 9 -3 9 -10 -2 -8 -13 -10 -12 -10 3 0 9 6 17 13 17 7 0 28 13 47 29 33 27 35 28 38 9 2 -11 -2 -33 -8 -48z m-124 4 c-11 -11 -25 -17 -30 -13 -15 13 1 34 27 34 l25 0 -22 -21z m141 -196 c-2 -35 -3 -7 -3 62 0 69 1 97 3 63 2 -35 2 -91 0 -125z m235 163 c4 -3 5 -16 2 -27 -6 -21 -6 -21 -29 2 -13 13 -29 24 -35 24 -5 0 -10 5 -10 11 0 11 58 3 72 -10z m-562 -33 c11 -12 20 -26 20 -32 0 -5 -6 -2 -12 7 -7 9 -22 23 -33 31 -11 9 -15 16 -8 16 7 0 21 -10 33 -22z m103 -75 c32 -16 22 -32 -11 -17 -20 8 -20 8 -52 -1 -25 -7 -25 -7 -5 10 11 9 14 14 8 10 -7 -3 -13 -1 -13 4 0 16 37 13 73 -6z m-43 -52 c0 -5 -13 -9 -30 -9 -16 1 -30 5 -30 10 0 4 14 8 30 8 17 0 30 -4 30 -9z m650 -54 c61 -12 65 -14 62 -37 -2 -14 -5 -26 -6 -27 -3 -3 -299 27 -304 31 -2 3 13 9 34 15 22 5 55 14 74 19 47 13 63 13 140 -1z m-540 -7 c0 -5 -7 -6 -17 -3 -11 4 -14 3 -9 -5 4 -7 1 -12 -8 -12 -9 0 -16 7 -16 15 0 9 9 15 25 15 14 0 25 -4 25 -10z m1049 -214 c-11 -9 -69 -15 -64 -6 3 6 20 10 37 10 17 0 29 -2 27 -4z m-581 -363 c-10 -2 -18 -9 -18 -14 0 -5 -7 -9 -15 -9 -9 0 -12 6 -9 15 4 9 17 15 33 14 17 -1 20 -3 9 -6z m-865 -268 c12 -8 16 -15 10 -15 -25 0 -43 32 -41 73 l1 42 4 -42 c3 -30 11 -47 26 -58z m97 86 c0 -4 -11 -6 -25 -3 -14 2 -25 6 -25 8 0 2 11 4 25 4 14 0 25 -4 25 -9z"></path><path id="p1FIeM9wmn" d="M3995 2010 c-3 -6 -1 -10 4 -10 6 0 70 -53 143 -117 73 -65 124 -107 113 -93 -33 44 -254 230 -260 220z"></path><path id="p11RW485LB" d="M5143 1994 l-28 -26 33 22 c29 20 39 30 28 30 -3 0 -18 -12 -33 -26z"></path><path id="p143lfBHSn" d="M5265 2010 c-3 -5 3 -10 15 -10 12 0 18 5 15 10 -3 6 -10 10 -15 10 -5 0 -12 -4 -15 -10z"></path><path id="p1Fz5ds7WE" d="M4915 1670 c-6 -10 19 -60 30 -60 4 0 -14 60 -20 68 -2 2 -6 -2 -10 -8z"></path><path id="pspNm7odX" d="M3930 1570 c-23 -7 -22 -8 10 -8 19 0 44 3 55 8 17 7 15 9 -10 8 -16 0 -41 -4 -55 -8z"></path><path id="pcZDUgKx1" d="M4983 1548 c3 -9 1 -19 -6 -22 -7 -2 -1 -5 13 -6 22 0 23 -2 7 -11 -17 -10 -17 -12 4 -30 26 -22 27 -21 -31 -40 l-45 -14 45 -5 c49 -5 57 -19 59 -92 1 -27 -3 -38 -14 -38 -15 0 -34 -28 -30 -45 2 -5 6 -23 9 -38 4 -15 11 -25 15 -22 12 7 41 -5 41 -16 0 -5 -12 -9 -27 -9 l-28 -1 30 -16 c16 -9 45 -33 65 -55 36 -38 37 -38 91 -31 52 8 54 9 57 42 2 23 -3 40 -18 56 -24 26 -20 29 54 40 33 5 46 12 46 24 0 18 -14 43 -24 42 -7 -1 -14 1 -106 31 -65 21 -76 28 -85 54 -12 35 -40 80 -73 116 -14 15 -22 33 -19 40 2 8 -5 25 -16 38 -12 14 -18 18 -14 8z"></path><path id="p1ED7GvjdM" d="M5025 1518 c1 -12 6 -23 12 -25 6 -2 8 7 6 22 -6 31 -20 33 -18 3z"></path><path id="pbeIayLR4" d="M5120 1474 c14 -16 28 -30 33 -32 4 -2 4 -9 1 -14 -4 -7 -2 -8 5 -4 6 4 19 2 28 -6 9 -7 18 -12 20 -10 1 1 2 -1 1 -4 -2 -3 6 -10 17 -16 11 -6 58 -36 105 -66 46 -30 141 -89 210 -129 69 -41 140 -84 158 -95 17 -11 32 -16 32 -11 0 4 -18 19 -40 33 -22 14 -40 28 -40 32 0 13 13 9 48 -12 18 -11 39 -20 47 -20 11 0 12 -6 6 -23 -10 -27 -17 -21 134 -109 55 -32 104 -58 110 -58 10 0 -81 57 -157 100 -21 11 -38 25 -38 30 0 13 37 13 45 0 3 -5 24 -14 46 -20 22 -6 37 -15 34 -20 -5 -8 32 -26 48 -22 4 1 7 -2 7 -8 0 -5 22 -21 50 -35 27 -14 107 -58 177 -98 70 -41 166 -94 213 -118 47 -24 87 -47 90 -50 8 -11 181 -99 193 -99 6 0 0 11 -13 25 -13 14 -29 25 -35 25 -7 0 -52 22 -101 49 -218 120 -595 328 -659 364 -38 21 -108 60 -155 85 -47 25 -141 77 -210 115 -69 39 -152 85 -185 102 -115 62 -130 70 -135 76 -3 4 -30 21 -60 39 l-55 32 25 -28z"></path><path id="p8uASlK56" d="M5058 1457 c12 -13 20 -26 17 -29 -3 -2 2 -5 10 -5 11 0 8 8 -12 29 -15 15 -29 28 -32 28 -2 0 5 -10 17 -23z"></path><path id="pycW7UR0E" d="M3520 1426 c0 -8 -6 -17 -12 -19 -8 -3 -6 -6 5 -6 11 -1 17 6 17 19 0 11 -2 20 -5 20 -3 0 -5 -6 -5 -14z"></path><path id="p7Ljt0BY3" d="M3524 1355 c-35 -40 -36 -52 -3 -53 27 -1 29 2 29 39 0 21 -1 39 -2 39 -2 0 -13 -11 -24 -25z"></path><path id="pGBzpZRQZ" d="M3490 1256 c0 -41 0 -40 35 -24 35 16 31 52 -7 56 -26 3 -28 1 -28 -32z"></path><path id="pErsYRiYi" d="M5273 1113 c9 -2 25 -2 35 0 9 3 1 5 -18 5 -19 0 -27 -2 -17 -5z"></path><path id="pH8XvffR1" d="M2275 1099 c-155 -8 -145 -7 -145 -18 0 -6 53 -10 121 -10 66 -1 124 -3 127 -5 12 -7 716 -8 764 -1 26 4 45 11 43 16 -3 4 3 10 12 12 10 2 2 2 -17 -1 -55 -7 -261 -8 -266 0 -6 9 -44 6 -44 -4 0 -4 -71 -8 -159 -8 -129 0 -161 3 -171 15 -14 16 -40 17 -265 4z"></path><path id="pkPiCFaPQ" d="M4874 992 c-13 -31 -12 -36 6 -62 23 -32 26 -44 8 -34 -10 5 -10 4 -1 -6 6 -7 35 -15 63 -18 60 -5 125 16 160 53 29 31 37 67 14 58 -13 -5 -15 -2 -10 13 5 17 2 19 -32 16 -20 -2 -72 1 -115 6 l-78 8 -15 -34z"></path><path id="pYEYIkC9Y" d="M3670 815 c-6 -8 -9 -19 -5 -25 4 -6 -5 -29 -19 -50 -14 -22 -26 -44 -26 -49 0 -21 68 -29 88 -9 18 18 15 113 -4 132 -19 19 -19 19 -34 1z"></path><path id="p1FWl2Llkd" d="M8362 673 c3 -48 3 -48 43 -53 35 -5 41 -3 41 13 0 11 -15 30 -33 44 -18 14 -30 29 -27 34 3 5 -2 9 -11 9 -13 0 -16 -9 -13 -47z"></path><path id="pqTBQe8Fv" d="M5690 680 c19 -13 30 -13 30 0 0 6 -10 10 -22 10 -19 0 -20 -2 -8 -10z"></path><path id="p101xwKBml" d="M5773 675 c-3 -9 -3 -18 0 -22 10 -10 37 6 37 22 0 20 -29 20 -37 0z"></path><path id="prk1H5VRg" d="M3711 651 c-11 -7 -11 -9 0 -13 11 -4 12 -8 2 -20 -18 -22 -7 -27 33 -16 19 5 43 6 54 3 31 -10 31 10 0 33 -30 23 -65 28 -89 13z"></path><path id="p1Hj5eeZE7" d="M7263 613 c9 -2 25 -2 35 0 9 3 1 5 -18 5 -19 0 -27 -2 -17 -5z"></path><path id="pK57KCmWG" d="M7463 610 c148 -12 111 -23 -58 -17 -118 4 -170 2 -200 -8 -36 -11 -14 -13 193 -14 196 -1 232 1 232 13 0 8 -4 18 -10 21 -5 3 -10 1 -10 -4 0 -6 -10 -11 -22 -10 -21 0 -21 1 -4 8 34 13 4 18 -104 18 l-105 0 88 -7z"></path><path id="pz3w7ATC2" d="M3864 599 c-3 -5 -16 -9 -29 -9 -13 0 -27 -5 -30 -11 -4 -6 -23 -8 -44 -5 -20 3 -54 1 -76 -3 l-40 -9 34 -1 c19 0 32 -4 29 -7 -4 -3 -94 -7 -202 -9 -109 -3 -201 -7 -206 -10 -6 -4 -10 -1 -10 4 0 6 -9 11 -20 11 -11 0 -20 -4 -20 -9 0 -4 -98 -11 -217 -16 -231 -7 -322 -23 -143 -24 346 -2 486 0 575 8 55 5 199 11 320 15 120 4 221 9 224 11 2 3 -18 5 -45 5 -32 0 -44 3 -35 9 18 12 5 31 -22 31 -16 0 -18 3 -9 9 10 6 9 10 -7 14 -12 3 -24 1 -27 -4z"></path><path id="p1BdA7pudi" d="M7650 598 c0 -5 12 -9 28 -9 24 -2 23 -2 -8 -9 -27 -6 -18 -8 43 -9 45 0 77 3 77 9 0 6 15 9 33 9 l32 -1 -30 -8 c-26 -7 463 -16 505 -10 17 2 31 21 24 32 -3 4 -16 8 -30 8 -14 0 -22 -4 -19 -10 3 -5 -1 -10 -9 -10 -8 0 -17 4 -20 9 -3 5 -28 4 -57 -1 -36 -7 -54 -6 -59 2 -8 12 -510 10 -510 -2z"></path><path id="pxP6lzzbP" d="M20 440 c0 -49 0 -49 38 -55 75 -12 82 -12 82 -2 0 5 8 4 18 -4 9 -7 -12 15 -48 49 -36 33 -71 61 -77 62 -9 0 -13 -16 -13 -50z"></path><path id="pIz4htXT6" d="M1303 464 c-6 -14 -7 -24 -1 -24 5 0 6 -4 3 -10 -3 -5 1 -10 9 -10 8 0 20 9 26 19 13 26 13 29 -8 40 -14 7 -20 4 -29 -15z"></path><path id="peM1M2hA6" d="M2735 479 c-33 -3 21 -4 120 -2 99 3 182 7 184 9 7 7 -240 1 -304 -7z"></path><path id="pBaDXxRAk" d="M2220 450 c-37 -6 -30 -7 40 -8 56 0 76 3 60 8 -29 9 -40 9 -100 0z"></path><path id="p4oRFrDJm" d="M1118 433 c12 -2 30 -2 40 0 9 3 -1 5 -23 4 -22 0 -30 -2 -17 -4z"></path><path id="pI4Jx3gSt" d="M970 419 c25 -4 61 -7 80 -7 l35 0 -40 9 c-22 4 -58 8 -80 7 l-40 -1 45 -8z"></path><path id="pt0ALMhOn" d="M711 416 c2 -2 42 -6 89 -8 47 -3 74 -2 60 2 -25 8 -157 13 -149 6z"></path><path id="pAcpE4F78" d="M1100 416 c0 -2 18 -6 39 -8 22 -2 37 0 35 4 -5 8 -74 11 -74 4z"></path><path id="pkoCQKT3c" d="M543 403 c9 -2 25 -2 35 0 9 3 1 5 -18 5 -19 0 -27 -2 -17 -5z"></path><path id="pBuJ3loYi" d="M660 397 l65 -11 -70 -7 c-38 -4 -110 -7 -159 -8 -49 0 -86 -4 -82 -8 10 -10 305 -10 299 0 -2 4 37 5 89 1 51 -4 90 -3 86 1 -4 4 -29 8 -56 10 -27 2 -76 11 -109 19 -34 9 -76 15 -94 15 -23 -1 -14 -5 31 -12z"></path><path id="pDcN4ao66" d="M1230 400 c0 -5 9 -10 21 -10 11 0 17 5 14 10 -3 6 -13 10 -21 10 -8 0 -14 -4 -14 -10z"></path><path id="piMtA0b84" d="M433 393 c15 -2 37 -2 50 0 12 2 0 4 -28 4 -27 0 -38 -2 -22 -4z"></path><path id="pWSSDNw7G" d="M875 390 c-15 -5 -10 -8 20 -13 58 -10 157 -8 151 2 -3 5 -26 6 -50 4 -25 -3 -57 -1 -73 4 -15 6 -37 7 -48 3z"></path><path id="p5akTBlmb" d="M1059 387 c4 -4 43 -7 87 -5 l79 3 -87 5 c-48 3 -83 1 -79 -3z"></path><path id="p16Q4hTbjY" d="M251 386 c2 -2 33 -6 69 -9 38 -3 57 -1 45 3 -19 8 -123 14 -114 6z"></path><path id="p3rtrLHXZ" d="M528 383 c12 -2 30 -2 40 0 9 3 -1 5 -23 4 -22 0 -30 -2 -17 -4z"></path><path id="pt3BD7IBI" d="M30 355 c0 -6 28 -37 62 -70 34 -33 47 -43 30 -22 -34 41 -39 52 -19 44 47 -17 57 -18 57 -3 0 9 -5 16 -10 16 -6 0 -9 6 -8 13 2 7 -9 13 -24 15 -23 3 -28 -1 -28 -17 0 -28 -10 -26 -37 7 -12 15 -22 22 -23 17z"></path><path id="p9BIPmTTX" d="M4799 353 c-2 -4 -20 -16 -39 -25 -28 -13 -31 -17 -14 -17 24 -1 73 34 63 44 -4 3 -9 3 -10 -2z"></path><path id="pW7UFPzrd" d="M166 321 c3 -9 7 -22 7 -28 0 -7 7 -14 16 -14 62 -5 76 -3 79 11 2 10 -14 20 -53 31 -52 16 -56 16 -49 0z"></path><path id="pAlYBT4XC" d="M4300 333 c0 -18 36 -43 62 -43 14 0 32 8 39 17 12 15 12 16 -1 8 -22 -14 -73 -6 -87 13 -7 9 -13 11 -13 5z"></path><path id="poBepKqqu" d="M217 223 c-4 -3 -7 -10 -7 -13 0 -11 60 -34 67 -26 3 3 1 6 -5 6 -7 0 -12 6 -12 14 0 8 -7 17 -16 20 -19 7 -19 7 -27 -1z"></path></g></g></svg>