<svg class="img-fluid" id="outputsvg" xmlns="http://www.w3.org/2000/svg" style="transform: matrix(0.781469, 0, 0, 0.781469, 6.29213, 22.2611); transform-origin: 50% 50%; cursor: move; max-height: none; transition: transform 200ms ease-in-out;" width="1600" height="1072" viewBox="0 0 16000 10720"><g id="lpDwWakFiSdhOBj31FvJBm" fill="rgb(0,0,0)" style="transform: none;"><g style="transform: none;"><path id="pEo8hxDsZ" d="M6134 7284 c-62 -22 -117 -75 -158 -154 -24 -46 -47 -75 -66 -85 -73 -38 -190 -221 -190 -297 0 -36 2 -38 33 -38 18 0 38 5 43 10 24 24 266 139 323 154 35 9 65 16 67 16 2 0 4 -25 4 -56 0 -61 13 -94 36 -94 11 0 14 -9 12 -37 -2 -31 -7 -39 -25 -41 -20 -3 -23 -10 -23 -44 0 -40 0 -40 66 -37 67 4 67 4 79 -37 6 -22 54 -104 105 -182 70 -108 94 -153 97 -185 5 -43 5 -43 -102 -108 -104 -64 -109 -65 -126 -48 -26 26 -73 36 -224 50 -135 13 -135 13 -145 45 -16 46 -87 124 -135 145 -56 26 -197 26 -257 0 -90 -38 -167 -134 -203 -250 -14 -48 -25 -66 -47 -77 -31 -16 -121 -137 -149 -202 -10 -24 -19 -59 -19 -78 0 -32 2 -34 32 -34 20 0 42 9 57 24 35 33 196 123 234 132 17 3 96 34 176 69 244 104 260 108 405 113 71 2 157 1 192 -3 59 -6 64 -8 64 -31 0 -19 -32 -50 -149 -146 -82 -68 -175 -143 -207 -168 -75 -58 -162 -182 -163 -230 -1 -19 13 -82 29 -139 49 -169 35 -197 -18 -36 -29 88 -30 90 -63 92 -32 2 -38 -3 -99 -88 -36 -50 -70 -95 -76 -100 -12 -10 -364 30 -364 42 0 4 79 51 175 105 175 99 175 99 175 137 0 37 0 37 -69 37 -38 0 -88 7 -111 15 -79 28 -93 23 -392 -126 -283 -142 -283 -142 -583 -100 -165 23 -655 91 -1090 151 -925 129 -1240 170 -1298 170 -23 0 -63 -7 -89 -15 -26 -7 -89 -21 -140 -30 -125 -21 -141 -33 -136 -95 3 -49 3 -49 -97 -89 -177 -71 -624 -258 -839 -350 -115 -51 -217 -102 -324 -164 -48 -29 -52 -34 -52 -69 0 -46 -17 -41 245 -68 110 -12 272 -32 360 -45 88 -14 243 -36 345 -49 102 -14 309 -44 460 -66 151 -23 340 -49 420 -60 201 -26 820 -118 1215 -180 105 -16 413 -61 685 -100 272 -39 528 -75 568 -81 72 -11 72 -11 72 -100 0 -85 -1 -90 -31 -124 -19 -22 -40 -35 -55 -35 -20 0 -24 -5 -24 -29 0 -16 -6 -44 -14 -63 -20 -46 -30 -129 -22 -173 17 -88 112 -141 273 -152 108 -7 100 0 132 -123 18 -65 18 -65 75 -65 49 1 61 4 77 24 26 31 25 95 -2 137 -16 26 -18 35 -7 38 7 2 45 14 83 25 39 11 124 40 190 64 90 33 121 49 123 63 3 18 14 19 150 19 154 1 227 14 396 71 68 23 68 23 95 3 45 -33 126 -49 221 -43 74 5 92 3 135 -16 28 -12 80 -25 118 -27 57 -5 67 -3 67 11 0 21 55 21 142 1 35 -8 140 -26 233 -40 256 -38 399 -66 410 -80 6 -6 48 -18 94 -24 87 -13 169 -38 232 -72 20 -10 51 -19 68 -19 29 0 31 2 31 38 0 27 -7 45 -21 58 -43 39 -54 97 -22 117 4 3 139 -17 298 -44 160 -27 409 -67 555 -89 146 -22 308 -49 360 -60 158 -32 496 -88 660 -110 85 -11 196 -29 245 -40 214 -47 593 -116 854 -155 58 -9 111 -21 118 -27 8 -6 33 -8 61 -5 26 3 55 1 65 -5 17 -9 118 -27 657 -119 96 -16 222 -38 280 -49 58 -10 173 -31 255 -45 83 -14 224 -39 315 -55 91 -16 291 -52 445 -79 154 -28 350 -62 435 -76 85 -14 284 -53 442 -88 287 -62 287 -62 302 -100 10 -26 20 -37 35 -37 14 0 21 -6 21 -19 0 -48 223 -161 318 -161 38 0 42 2 42 25 0 30 26 45 76 45 48 0 115 -20 121 -37 6 -15 83 -18 83 -3 0 6 11 10 24 10 13 0 38 3 55 6 29 6 31 10 31 48 0 57 36 117 76 128 18 5 36 19 45 35 7 16 21 35 29 43 8 8 20 24 26 35 6 11 24 24 40 29 16 5 43 15 61 22 17 8 35 14 40 14 4 0 24 26 45 58 43 68 208 404 208 425 0 8 9 26 20 40 11 14 20 38 20 54 0 23 7 33 33 45 17 8 65 41 105 72 67 53 72 60 72 96 0 21 -4 41 -9 44 -9 6 -976 167 -1531 256 -179 29 -536 87 -795 130 -258 43 -617 102 -797 131 -284 47 -328 56 -328 71 0 10 -10 20 -22 23 -62 15 -957 165 -984 165 -16 0 -94 47 -479 291 -121 77 -333 210 -472 296 -283 176 -283 141 2 302 55 32 125 73 156 93 57 36 57 36 320 47 264 11 304 9 312 -12 3 -7 78 -105 168 -218 90 -113 230 -290 312 -392 147 -187 147 -187 201 -187 110 0 320 103 539 265 147 109 147 109 147 160 0 52 -50 567 -56 574 -1 2 -45 7 -96 11 -84 7 -173 28 -125 29 28 1 490 -67 607 -89 137 -26 157 -25 269 10 109 34 197 74 391 176 40 21 86 37 120 41 30 3 57 10 60 14 3 4 59 40 125 80 66 40 123 77 127 83 4 6 8 28 8 48 0 28 -6 41 -22 52 -22 13 -1404 216 -1473 216 -30 0 -30 0 -27 62 1 35 -3 124 -10 198 -13 134 -13 134 -48 142 -81 17 -461 79 -530 86 -75 7 -75 7 -78 52 -4 59 -16 70 -69 70 -38 0 -57 -9 -136 -63 -51 -35 -108 -67 -127 -71 -38 -7 -812 -65 -1425 -106 -82 -5 -235 -17 -340 -25 -262 -20 -478 -35 -508 -35 -16 0 -46 -18 -79 -46 -148 -128 -239 -171 -418 -199 -27 -4 -40 -14 -57 -43 -22 -37 -22 -37 -23 9 0 45 0 45 -56 63 -64 20 -144 89 -144 125 0 12 -7 24 -16 28 -9 3 -121 -1 -248 -10 -127 -9 -303 -19 -391 -22 -88 -3 -195 -8 -238 -11 -73 -4 -79 -3 -84 16 -8 29 -88 29 -96 0 -5 -18 -14 -20 -105 -20 -54 0 -119 -3 -143 -6 -42 -6 -44 -5 -56 25 -10 28 -15 31 -56 31 -38 0 -49 -5 -66 -27 -16 -22 -20 -24 -21 -10 0 10 -8 17 -19 17 -11 0 -23 5 -26 10 -8 13 -85 13 -85 0 0 -5 -12 -16 -28 -24 -27 -14 -27 -14 -81 61 -29 41 -65 98 -80 126 -14 29 -36 62 -48 75 -30 29 -30 62 -2 62 20 0 21 3 15 62 -9 74 -15 84 -61 92 -25 5 -35 12 -35 26 0 10 5 22 10 25 6 3 10 31 10 61 0 51 1 54 25 54 16 0 25 6 25 15 0 13 9 15 53 9 60 -8 65 -10 49 -26 -7 -7 -12 -42 -12 -84 0 -51 -4 -75 -15 -84 -8 -7 -15 -28 -15 -46 0 -31 2 -34 31 -34 32 0 81 33 160 110 20 19 48 43 63 53 20 14 26 26 26 56 0 44 -17 99 -37 122 -17 20 -92 41 -226 64 -97 17 -98 18 -117 54 -25 50 -90 107 -137 120 -52 15 -140 12 -189 -5z m5293 -908 c2 -2 -97 -26 -220 -55 -122 -29 -305 -73 -407 -97 -102 -24 -261 -62 -355 -84 -255 -60 -790 -187 -1090 -260 -395 -96 -497 -120 -508 -120 -7 0 -63 32 -125 70 -79 50 -122 70 -145 70 -27 0 -35 5 -43 29 -10 25 -7 36 21 85 31 55 59 92 36 49 -6 -12 -11 -38 -11 -57 0 -36 0 -36 63 -35 34 1 145 -4 247 -11 185 -13 185 -13 290 18 122 35 185 48 450 96 210 39 527 100 600 116 25 5 104 19 175 30 72 11 186 32 255 45 69 14 181 34 250 45 69 11 197 33 285 49 131 24 216 30 232 17z m-3182 -616 c20 0 38 6 43 15 4 9 25 18 45 22 31 5 37 3 37 -13 0 -10 25 -41 55 -70 55 -51 55 -51 -27 -68 -432 -90 -448 -95 -730 -249 -106 -57 -265 -143 -353 -190 -88 -47 -189 -102 -225 -122 -36 -20 -182 -97 -325 -171 -143 -73 -295 -155 -337 -181 -616 -379 -990 -583 -1069 -583 -36 0 -36 0 -31 54 4 54 4 54 -27 61 -36 8 -36 9 -15 33 13 16 27 18 92 15 92 -5 117 6 149 62 16 29 23 57 23 98 0 46 3 57 16 57 9 0 25 11 36 25 10 14 45 42 76 62 31 21 61 44 67 53 8 12 11 8 15 -20 5 -32 8 -35 44 -38 51 -4 96 35 96 85 0 33 0 33 -50 33 -55 0 -55 -1 -50 102 1 31 -2 38 -22 43 -119 26 -230 45 -311 51 -84 6 -97 9 -97 25 0 31 48 31 270 -1 246 -35 230 -31 335 -75 44 -19 111 -39 148 -45 40 -6 98 -25 138 -45 39 -20 83 -35 104 -35 34 0 35 1 35 36 0 21 -8 47 -20 62 -21 26 -21 26 7 49 28 23 235 127 373 188 41 18 125 56 185 85 153 73 323 150 330 150 6 0 218 99 521 243 144 69 253 128 315 172 83 59 94 64 97 46 3 -17 11 -21 37 -21z m3171 -149 c12 -11 121 -31 414 -76 129 -20 255 -41 280 -45 40 -8 38 -9 -15 -3 -137 13 -721 99 -745 109 -11 5 -9 9 10 14 35 11 45 11 56 1z m279 -239 c-6 -5 -63 -41 -127 -81 -114 -71 -118 -74 -118 -108 0 -21 14 -60 34 -96 18 -34 55 -102 81 -152 27 -49 55 -101 63 -115 36 -63 -108 116 -326 405 -33 43 -33 43 25 55 66 13 356 90 362 96 2 2 7 4 10 4 3 0 1 -4 -4 -8z m-3323 -171 c3 -23 -1 -32 -19 -42 -17 -9 -23 -21 -23 -46 0 -30 3 -33 30 -33 28 0 30 -3 30 -37 0 -21 3 -54 6 -74 6 -35 6 -35 -76 -73 -85 -39 -250 -100 -255 -94 -2 2 -6 53 -10 115 -7 111 -7 111 19 125 14 7 34 29 44 48 10 18 34 41 52 51 18 10 38 23 44 29 5 5 20 10 33 10 13 0 23 6 23 13 0 16 37 34 71 36 22 1 27 -4 31 -28z m3416 -42 c-32 -26 -38 -37 -38 -70 0 -21 7 -57 16 -79 9 -23 14 -43 12 -46 -3 -2 -31 35 -62 82 -32 47 -56 87 -54 89 6 5 143 54 153 54 6 0 -7 -13 -27 -30z m-3864 -371 c6 -46 5 -49 -21 -59 -25 -9 -30 -7 -50 18 -13 15 -23 42 -23 59 0 17 -9 43 -20 57 -28 35 -25 44 13 51 19 3 42 13 53 20 18 14 20 11 30 -41 7 -31 15 -78 18 -105z m2195 -33 c83 -51 224 -141 313 -198 90 -57 217 -137 283 -178 80 -50 113 -75 100 -77 -11 -1 -176 24 -367 56 -346 59 -346 59 -400 109 -29 28 -106 99 -170 158 -65 59 -118 109 -118 110 0 8 183 114 196 114 7 1 80 -42 163 -94z m-1789 -143 c29 -29 29 -29 -3 -60 -27 -26 -87 -59 -91 -50 -1 2 0 33 2 71 4 67 4 67 33 67 18 0 40 -10 59 -28z m1400 -97 c45 -47 45 -47 15 -42 -16 4 -95 16 -175 28 -80 12 -151 25 -159 29 -8 4 22 25 85 58 98 50 98 50 144 12 25 -21 65 -59 90 -85z m-3635 -231 c-22 -19 -106 -85 -187 -147 -182 -138 -182 -137 -83 -255 36 -42 65 -80 65 -84 0 -4 -69 26 -153 66 -84 40 -169 79 -190 85 -38 13 -38 13 85 80 143 78 444 253 473 275 37 28 30 16 -10 -20z m240 -100 c-27 -25 -87 -77 -132 -116 -94 -79 -96 -86 -63 -182 22 -60 22 -98 1 -59 -6 12 -34 50 -62 84 -28 33 -47 64 -43 68 5 4 43 31 84 59 41 29 116 83 165 121 50 39 92 70 95 70 3 0 -17 -20 -45 -45z m915 -160 c0 -31 -109 -304 -122 -304 -5 0 -57 19 -115 42 -107 42 -107 42 -71 72 19 17 70 62 112 100 61 55 87 72 129 82 63 15 67 16 67 8z m340 -77 c135 -22 135 -22 158 -71 13 -27 24 -60 25 -74 2 -22 -5 -27 -58 -44 -125 -39 -143 -47 -209 -92 -37 -25 -73 -46 -79 -45 -27 2 -112 36 -109 45 6 24 95 290 99 297 6 10 19 9 173 -16z m7310 -1142 c0 -14 9 -44 20 -65 20 -40 20 -40 -18 -46 -27 -4 -55 -20 -88 -50 -28 -26 -66 -49 -89 -55 -109 -28 -125 -40 -125 -93 0 -25 -3 -26 -51 -26 -42 0 -52 -3 -56 -20 -5 -18 -7 -18 -53 6 -33 17 -61 24 -87 22 -36 -3 -38 -5 -41 -39 -3 -31 -6 -35 -26 -32 -16 3 -25 15 -33 46 -6 23 -9 45 -6 49 2 5 37 25 76 45 40 19 101 56 137 81 52 36 401 199 433 201 4 1 7 -10 7 -24z"></path><path id="pxsC2otDp" d="M8665 6927 c-75 -36 -121 -96 -155 -204 -12 -39 -25 -58 -50 -76 -48 -31 -102 -143 -108 -219 -4 -58 -4 -58 28 -58 23 0 52 14 99 48 129 95 196 136 326 198 151 73 227 96 265 82 24 -10 161 -33 263 -45 47 -6 47 -6 47 30 0 19 -6 39 -12 45 -21 17 -87 32 -208 47 -63 8 -116 19 -118 24 -9 28 -67 94 -104 118 -36 25 -52 28 -132 31 -79 2 -98 0 -141 -21z"></path><path id="pzi8Rg0dz" d="M5067 3174 c-12 -12 -8 -79 5 -92 7 -7 29 -12 51 -12 38 0 38 0 35 53 -3 52 -3 52 -43 55 -23 2 -44 0 -48 -4z"></path></g></g><g id="l1fPVO9DMDPFxY2tJZulWWH" fill="rgb(255,255,255)" style="transform: none;"><g style="transform: none;"><path id="ppnh7dXTu" d="M0 5360 c0 -5360 0 -5360 8000 -5360 8000 0 8000 0 8000 5360 0 5360 0 5360 -8000 5360 -8000 0 -8000 0 -8000 -5360z m6293 1899 c47 -13 112 -70 137 -120 19 -36 20 -37 117 -54 134 -23 209 -44 226 -64 8 -9 20 -34 27 -55 12 -38 12 -41 -15 -60 -15 -12 -39 -33 -53 -47 -51 -49 -107 -94 -92 -74 8 11 23 28 35 38 20 17 20 17 -5 9 -39 -14 -50 -5 -50 41 1 59 23 83 94 97 32 7 54 16 50 20 -5 5 -54 14 -109 19 -55 6 -117 14 -138 17 -33 6 -39 4 -44 -15 -7 -27 -19 -27 -26 0 -11 42 -27 6 -27 -60 0 -37 -4 -71 -9 -76 -8 -9 -16 -95 -12 -132 2 -21 21 -14 21 7 0 17 3 19 19 11 10 -6 21 -8 23 -5 3 2 11 -2 18 -11 17 -21 5 -49 -20 -42 -23 6 -25 -5 -9 -35 8 -15 8 -22 -1 -28 -18 -11 -5 -51 27 -86 15 -16 40 -53 55 -81 14 -29 54 -91 88 -138 61 -85 61 -85 110 -60 26 13 50 30 53 37 4 10 7 11 18 1 7 -7 21 -13 31 -13 21 0 23 -11 6 -28 -9 -9 -4 -12 26 -12 29 0 44 7 64 30 30 35 47 38 61 12 7 -13 6 -23 -2 -32 -10 -10 9 -11 97 -6 60 3 145 6 188 6 71 0 80 2 85 20 6 23 33 27 33 6 0 -8 4 -17 9 -20 13 -8 508 11 749 29 111 9 207 13 212 10 6 -3 10 -16 10 -27 0 -35 81 -104 144 -124 31 -10 56 -23 56 -30 0 -15 -65 -129 -89 -158 -9 -10 -35 -31 -59 -46 -42 -28 -42 -28 -15 -33 16 -3 42 1 60 8 31 13 32 13 42 -17 9 -26 14 -29 40 -23 25 5 48 -5 150 -69 66 -42 127 -76 135 -76 8 0 108 23 223 50 114 28 262 64 328 80 309 75 837 201 1090 260 505 119 1324 314 1368 327 13 3 17 13 15 31 -3 25 -6 27 -53 27 -28 0 -68 -9 -89 -19 -21 -10 -69 -23 -105 -28 -36 -5 -79 -16 -94 -24 -32 -16 -90 -18 -115 -5 -11 5 -85 -4 -207 -25 -104 -19 -246 -43 -315 -54 -69 -11 -181 -31 -250 -45 -69 -13 -183 -34 -255 -45 -71 -11 -150 -25 -175 -30 -73 -16 -390 -77 -600 -116 -262 -47 -327 -61 -448 -95 -102 -30 -102 -30 -307 -14 -112 8 -211 12 -219 9 -23 -9 -20 1 16 67 28 51 37 60 68 64 177 27 270 71 417 198 57 49 43 46 328 62 50 3 140 10 200 15 61 6 211 17 335 25 801 55 1451 103 1490 111 19 4 76 36 127 71 95 65 111 71 131 51 15 -15 16 -70 1 -85 -13 -13 5 -17 116 -28 59 -6 436 -68 505 -83 35 -8 35 -8 49 -162 12 -139 12 -156 -3 -181 -27 -46 -22 -59 28 -59 24 0 358 -45 742 -100 384 -55 704 -100 710 -100 21 0 55 -35 49 -50 -3 -8 -62 -48 -130 -89 -69 -41 -125 -78 -125 -81 0 -4 -26 -10 -57 -13 -38 -4 -81 -18 -123 -40 -191 -102 -283 -143 -394 -178 -96 -30 -96 -30 -228 -5 -73 13 -234 38 -358 55 -124 18 -274 38 -335 47 -164 22 -612 93 -675 106 -30 6 -63 18 -73 26 -15 13 -25 13 -73 2 -52 -13 -84 -38 -84 -66 0 -14 55 -25 364 -69 131 -19 241 -36 244 -39 3 -3 -1 -8 -9 -10 -58 -21 -475 -133 -562 -151 -60 -13 -110 -25 -112 -27 -8 -8 375 -494 622 -787 53 -63 25 1 -80 190 -63 112 -133 240 -157 284 -23 44 -58 108 -76 142 -19 34 -34 63 -34 66 0 6 228 149 340 212 47 27 93 55 102 63 14 12 38 11 165 -6 142 -19 230 -40 176 -41 -28 -1 -30 -26 -4 -40 22 -12 31 -5 31 22 0 18 6 19 80 15 44 -3 82 -7 84 -9 4 -4 56 -510 56 -544 0 -28 -265 -223 -395 -291 -113 -59 -226 -104 -261 -104 -19 0 -54 39 -171 187 -82 102 -222 279 -312 392 -90 113 -166 212 -168 218 -9 22 -66 25 -323 14 -140 -6 -255 -9 -257 -8 -3 4 288 187 337 212 40 20 160 104 160 112 0 6 -52 -23 -175 -99 -49 -30 -146 -87 -215 -127 -69 -40 -160 -97 -204 -127 -43 -29 -113 -72 -155 -95 -42 -23 -110 -62 -151 -87 -41 -25 -96 -55 -123 -67 -39 -18 -45 -24 -33 -34 8 -7 162 -105 343 -218 326 -204 513 -321 753 -473 69 -44 133 -79 142 -80 31 0 926 -150 987 -165 24 -6 24 -6 -10 -35 -26 -22 -30 -29 -16 -30 9 0 26 5 37 12 16 10 77 3 332 -39 905 -150 1487 -245 1693 -278 657 -105 1431 -237 1440 -246 12 -12 -37 -57 -130 -120 -58 -39 -62 -41 -125 -36 -36 2 -139 18 -230 35 -224 42 -389 66 -397 58 -16 -16 30 -27 292 -70 346 -57 385 -65 385 -78 0 -5 -9 -21 -20 -35 -11 -14 -20 -32 -20 -40 0 -21 -165 -357 -208 -425 -21 -32 -41 -58 -45 -58 -5 0 -23 -6 -40 -14 -18 -7 -45 -17 -61 -22 -16 -5 -34 -18 -40 -29 -6 -11 -18 -27 -26 -35 -8 -8 -22 -28 -30 -43 -8 -17 -25 -30 -42 -34 -32 -6 -35 -10 -73 -81 -24 -43 -27 -57 -18 -72 11 -16 8 -19 -23 -24 -19 -4 -39 -4 -46 0 -6 4 -17 -1 -25 -11 -12 -17 -14 -17 -25 -3 -20 24 -75 38 -152 38 -49 0 -79 -5 -94 -16 -15 -10 -32 -13 -53 -9 -43 10 -34 -15 12 -31 19 -7 26 -13 16 -13 -10 -1 -28 4 -40 11 -12 7 -30 13 -41 15 -31 5 -173 83 -192 105 -16 19 -12 18 31 -7 28 -15 60 -35 72 -42 35 -23 34 1 -4 61 -47 76 -36 88 48 47 78 -38 87 -38 100 -5 9 26 12 26 65 20 56 -6 56 -6 49 23 -12 55 7 71 120 100 23 6 61 29 89 55 33 29 61 46 86 50 49 8 55 30 24 97 -24 51 -24 52 -7 88 12 24 28 39 48 44 79 22 100 31 138 57 23 15 68 40 100 54 87 42 68 49 -25 9 -46 -19 -105 -43 -133 -54 -27 -12 -54 -24 -60 -29 -5 -4 -125 -57 -265 -117 -160 -69 -279 -126 -320 -155 -36 -25 -97 -61 -136 -81 -96 -48 -101 -56 -82 -118 9 -27 12 -47 8 -44 -5 3 -13 20 -19 38 -11 32 -11 32 -299 94 -158 35 -357 74 -442 88 -85 14 -281 48 -435 76 -154 27 -354 63 -445 79 -91 16 -232 41 -315 55 -82 14 -197 35 -255 45 -58 11 -184 33 -280 49 -557 95 -644 111 -664 125 -17 10 -34 12 -67 6 -24 -5 -49 -4 -55 1 -6 4 -57 15 -115 24 -261 39 -640 108 -854 155 -49 11 -160 29 -245 40 -161 21 -513 80 -635 106 -38 8 -198 35 -355 59 -325 50 -810 130 -877 146 -55 12 -79 -4 -89 -57 -9 -46 1 -78 36 -118 40 -45 38 -51 -7 -28 -78 41 -161 66 -264 78 -30 4 -58 12 -64 19 -11 14 -157 43 -380 75 -77 12 -196 32 -265 46 -78 16 -138 23 -161 19 -60 -10 -118 13 -179 73 -41 39 -51 55 -41 61 10 7 10 13 2 29 -6 11 -11 27 -11 35 0 22 146 93 220 107 35 6 87 20 115 30 27 10 59 21 70 23 17 4 16 5 -4 6 -60 3 -276 -63 -397 -120 -68 -32 -126 -59 -129 -59 -3 0 -28 -11 -57 -25 -28 -14 -53 -25 -54 -25 -1 0 -5 21 -9 48 -4 26 -15 71 -25 99 -18 53 -18 53 43 104 34 28 122 106 196 173 74 66 254 218 401 336 379 306 449 364 444 369 -5 5 -88 -51 -189 -128 -33 -25 -163 -115 -290 -200 -126 -85 -264 -182 -305 -216 -90 -74 -331 -255 -415 -312 -96 -65 -96 -64 -35 -130 50 -54 120 -151 120 -164 0 -10 -145 -65 -245 -93 -137 -39 -226 -49 -347 -41 -107 7 -108 7 -106 -15 3 -20 -12 -28 -142 -75 -80 -30 -176 -61 -215 -71 -38 -9 -71 -18 -73 -19 -2 -1 14 -31 34 -65 31 -53 35 -66 25 -86 -11 -25 -55 -48 -76 -40 -6 2 -17 30 -24 61 -7 31 -19 72 -26 90 -14 32 -14 32 -109 38 -149 10 -241 55 -266 132 -12 36 0 106 26 157 9 17 12 38 8 51 -6 19 -5 20 8 9 13 -10 22 -5 57 33 41 45 41 45 41 155 0 67 4 110 10 110 6 0 10 7 10 16 0 12 -6 15 -22 11 -11 -3 -127 10 -256 29 -129 19 -379 55 -556 79 -177 25 -406 59 -511 75 -384 61 -1011 154 -1215 180 -80 11 -269 37 -420 60 -151 22 -342 50 -425 61 -82 11 -256 35 -385 54 -129 18 -313 41 -408 51 -94 10 -178 21 -184 26 -10 5 -8 11 7 22 33 24 256 142 320 169 33 14 130 55 215 92 85 37 241 102 345 145 105 43 252 103 328 135 139 57 139 57 285 36 162 -23 202 -26 202 -12 0 14 -21 18 -195 37 -158 17 -205 30 -205 59 0 25 42 43 135 60 50 8 115 22 146 31 52 15 67 14 260 -10 184 -24 1372 -188 2181 -301 318 -45 318 -45 609 101 291 145 291 145 333 131 41 -14 41 -14 -178 -123 -121 -60 -221 -114 -223 -119 -2 -6 2 -18 9 -27 12 -15 37 -3 248 118 211 121 239 134 282 134 26 0 48 -3 48 -7 0 -5 -99 -64 -220 -133 -121 -68 -220 -127 -220 -130 0 -4 432 -62 485 -64 13 -1 43 31 97 102 43 57 80 97 83 90 2 -7 16 -49 31 -93 37 -113 62 -136 98 -96 22 24 17 58 -26 208 -29 102 -29 102 25 180 31 46 77 96 111 123 103 80 351 286 365 304 11 13 11 22 3 41 -13 28 -27 16 151 126 48 30 105 64 125 75 37 22 55 54 31 54 -7 0 -23 10 -36 22 -23 21 -23 21 -24 -8 -1 -23 -3 -20 -10 15 -5 28 -40 92 -100 184 -51 78 -98 159 -104 181 -11 37 -10 41 9 51 11 6 25 22 30 37 7 21 5 32 -13 54 -13 16 -30 29 -39 29 -11 0 -18 10 -20 28 -3 21 -6 26 -16 18 -9 -8 -11 -34 -8 -91 4 -67 2 -80 -10 -80 -9 0 -30 -3 -47 -6 -20 -4 -31 -3 -31 5 0 6 9 11 19 11 26 0 27 3 35 78 7 58 6 62 -13 62 -28 0 -39 25 -42 99 -2 45 1 65 11 71 30 19 2 18 -36 0 -21 -11 -68 -27 -103 -36 -59 -15 -291 -125 -328 -155 -14 -12 -15 -11 -8 11 26 84 129 226 185 255 19 10 42 39 66 85 69 132 175 190 287 159z m2616 -372 c36 -24 94 -90 103 -118 2 -5 44 -14 93 -19 117 -14 221 -38 236 -56 14 -17 13 -17 -29 -5 -18 6 -63 13 -100 17 -36 3 -84 13 -106 20 -21 8 -48 14 -60 14 -111 0 -404 -146 -625 -311 -44 -33 -44 -33 -38 -1 13 62 70 165 107 189 25 18 38 37 50 76 34 108 80 168 155 204 69 33 155 29 214 -10z m-3134 -656 c48 -21 119 -99 135 -145 10 -32 10 -32 145 -45 141 -13 190 -23 218 -43 14 -11 -20 -13 -185 -13 -233 0 -229 1 -489 -110 -80 -34 -159 -66 -176 -69 -39 -9 -199 -100 -235 -134 -33 -31 -34 -27 -9 30 28 65 118 186 149 202 22 11 33 29 47 77 20 66 75 159 118 198 74 68 198 91 282 52z m590 -2451 c37 -41 161 -129 205 -146 65 -25 74 -38 20 -30 -24 4 -71 20 -104 36 -34 16 -63 25 -66 20 -8 -14 -159 -14 -207 -1 -24 7 -55 22 -70 35 -27 24 -27 24 5 31 17 3 34 11 37 16 4 5 16 9 28 9 13 0 38 11 57 25 43 30 71 31 95 5z"></path><path id="p15F17bdr4" d="M10975 6174 c-5 -2 -29 -8 -52 -14 -40 -10 -43 -13 -43 -45 0 -19 -4 -35 -10 -35 -5 0 -10 14 -10 30 0 21 -5 30 -16 30 -13 0 -15 -7 -9 -42 5 -29 4 -40 -3 -33 -6 6 -12 21 -14 35 -3 27 -24 36 -48 21 -12 -8 -12 -13 0 -35 20 -38 4 -43 -18 -6 -11 18 -23 27 -26 21 -4 -6 -20 -8 -36 -4 -23 4 -30 2 -30 -10 0 -9 5 -19 10 -22 6 -3 10 -13 10 -21 0 -8 -4 -14 -10 -14 -5 0 -10 9 -10 20 0 28 -44 48 -65 30 -23 -19 -18 -31 10 -24 31 8 34 -15 5 -41 -11 -10 -20 -29 -20 -42 0 -27 26 -41 42 -25 8 8 5 14 -11 20 -22 8 -22 8 -2 26 16 15 24 16 35 7 11 -10 21 -9 45 3 16 9 41 16 55 16 42 0 126 23 126 34 0 6 20 11 45 11 24 0 49 5 55 11 14 14 9 102 -5 98z"></path><path id="pTX77tCl2" d="M7580 5697 c-300 -150 -574 -289 -610 -309 -36 -19 -110 -59 -165 -88 -268 -141 -525 -289 -525 -302 0 -9 41 -8 50 2 7 8 126 78 270 159 69 39 132 77 141 86 9 8 22 15 30 15 8 0 19 4 24 9 14 13 528 276 961 491 314 156 412 210 378 210 -5 0 -254 -123 -554 -273z"></path><path id="pC30JpFDg" d="M8330 5940 c0 -11 -6 -20 -13 -20 -8 0 -86 -50 -173 -111 -132 -92 -197 -130 -379 -216 -301 -144 -514 -243 -520 -243 -7 0 -177 -77 -330 -150 -60 -29 -144 -67 -185 -85 -142 -62 -345 -165 -375 -190 -16 -14 -36 -25 -42 -25 -19 0 -17 -5 23 -61 19 -28 33 -53 31 -56 -3 -2 -36 12 -75 31 -41 21 -98 40 -139 46 -37 6 -104 26 -148 45 -105 44 -89 40 -333 75 -217 30 -269 34 -309 24 -20 -6 -23 -13 -23 -58 0 -51 0 -51 93 -53 84 -3 320 -42 334 -57 4 -3 -27 -7 -68 -7 -90 -2 -140 -11 -121 -23 7 -4 50 -14 95 -22 45 -8 85 -18 91 -24 11 -11 -46 -66 -120 -115 -29 -19 -62 -47 -73 -61 -20 -26 -20 -26 -152 0 -183 36 -363 53 -383 37 -9 -7 -27 -50 -42 -95 -24 -74 -29 -82 -49 -78 -25 4 -60 -39 -109 -135 -38 -75 -35 -88 25 -119 28 -14 52 -24 54 -22 1 2 12 24 23 51 12 26 28 50 37 53 18 7 312 -39 323 -51 4 -3 -5 -29 -20 -56 -26 -49 -26 -49 61 -49 84 0 89 2 196 54 213 103 470 251 923 529 42 26 194 108 337 181 143 74 289 151 325 171 36 20 137 75 225 122 88 47 247 133 353 190 106 58 231 120 277 138 89 35 90 35 379 95 104 22 192 42 195 46 3 3 -29 38 -72 78 -42 39 -77 77 -77 84 0 7 5 21 12 32 15 24 6 35 -19 22 -25 -14 -43 14 -43 63 0 19 -4 35 -10 35 -5 0 -10 -9 -10 -20z m-2925 -1387 c110 -28 110 -28 113 -68 3 -48 -31 -113 -68 -133 -18 -9 -47 -10 -98 -6 -74 7 -74 7 -106 -31 -31 -36 -33 -37 -72 -26 -21 6 -50 11 -64 11 -14 0 -41 5 -61 10 -32 9 -39 16 -53 61 -17 50 -17 50 14 90 34 42 40 45 56 29 7 -7 20 7 39 46 29 57 29 57 109 51 45 -3 131 -19 191 -34z"></path><path id="p14yhX4lai" d="M9884 5666 c-54 -54 -42 -78 14 -31 30 25 30 25 173 -11 139 -35 145 -36 216 -24 45 8 97 10 135 5 132 -15 298 -20 428 -12 216 13 186 29 -50 26 -116 -1 -236 3 -275 9 -104 17 -240 15 -276 -4 -22 -11 -34 -12 -43 -5 -20 16 -226 81 -259 81 -20 0 -40 -11 -63 -34z"></path><path id="pA3Jqv1cX" d="M12325 5378 c-4 -13 -7 -51 -5 -85 1 -41 -2 -63 -9 -63 -6 0 -11 9 -11 20 0 26 -23 72 -46 91 -15 12 -16 11 -11 -16 4 -17 9 -52 13 -80 4 -27 8 -53 11 -58 6 -9 31 5 66 37 28 26 28 29 22 94 -8 74 -18 95 -30 60z"></path><path id="pr8cl5Th5" d="M8340 5321 c0 -17 -73 -79 -86 -74 -9 3 -14 -2 -14 -16 0 -15 -6 -21 -23 -21 -13 0 -28 -5 -33 -10 -6 -6 -26 -19 -44 -29 -18 -10 -42 -33 -52 -51 -10 -19 -29 -40 -43 -47 -14 -8 -25 -19 -26 -26 -2 -39 2 -143 7 -215 6 -79 8 -84 28 -79 40 10 217 77 296 113 80 37 80 37 78 146 -3 110 -3 110 -38 104 -35 -5 -35 -5 -7 12 27 16 29 20 23 71 -4 29 -11 61 -16 71 -6 10 -10 28 -10 39 0 14 -6 21 -20 21 -11 0 -20 -4 -20 -9z"></path><path id="phHYsvVr2" d="M2140 5290 c0 -5 1 -10 3 -10 13 0 1202 -166 1976 -275 178 -25 249 -31 263 -24 11 6 18 12 16 14 -3 3 -366 55 -873 124 -159 22 -420 59 -580 81 -416 58 -735 100 -772 100 -18 0 -33 -4 -33 -10z"></path><path id="p1G030DfAY" d="M11768 5214 c-93 -31 -168 -59 -168 -64 0 -4 56 -91 124 -192 149 -219 157 -230 161 -226 4 4 -29 118 -77 267 -30 95 -30 95 18 138 27 23 70 60 97 80 89 70 65 69 -155 -3z"></path><path id="p14h0op15Z" d="M7875 4983 c-22 -15 -58 -32 -80 -39 -37 -11 -40 -14 -39 -47 1 -20 11 -47 23 -63 14 -18 20 -36 16 -51 -3 -15 5 -36 26 -67 31 -44 31 -44 78 -29 75 25 75 24 51 156 -11 63 -20 127 -20 141 0 32 -5 32 -55 -1z"></path><path id="p1908x8uI4" d="M7606 4913 c4 -10 10 -48 12 -86 3 -64 6 -69 49 -112 24 -25 53 -45 63 -45 10 0 22 -4 25 -10 8 -13 52 -13 60 0 4 6 -5 20 -19 31 -34 27 -76 119 -76 168 0 39 -1 41 -32 41 -18 0 -42 7 -52 15 -27 20 -40 19 -30 -2z"></path><path id="p2fQ3s45S" d="M9865 4849 c-44 -27 -101 -59 -127 -72 -26 -12 -48 -25 -48 -28 0 -7 63 -68 195 -189 44 -40 104 -95 134 -123 53 -50 53 -50 435 -113 209 -35 421 -70 469 -80 48 -9 90 -14 93 -12 2 3 -85 61 -193 128 -109 68 -315 198 -458 288 -143 91 -291 184 -329 208 -38 24 -74 44 -80 43 -6 -1 -47 -23 -91 -50z"></path><path id="p88ScA7RZ" d="M6625 4686 c-61 -34 -216 -132 -345 -218 -250 -165 -520 -326 -737 -440 -73 -38 -133 -73 -133 -76 0 -4 30 -14 68 -23 38 -10 160 -61 286 -123 121 -58 221 -106 223 -106 23 0 -62 132 -149 233 -28 32 -47 62 -42 66 5 4 68 52 139 106 145 110 351 278 489 398 75 65 144 115 310 229 6 4 8 9 6 12 -3 2 -55 -24 -115 -58z"></path><path id="p1B2r7CMqC" d="M8210 4616 c0 -64 -26 -120 -60 -131 -36 -12 -21 -25 28 -25 74 0 140 24 184 67 46 45 47 68 7 108 -25 25 -41 31 -95 35 -64 5 -64 5 -64 -54z"></path><path id="p11mbsucNA" d="M9455 4613 c-66 -36 -131 -67 -145 -70 -80 -14 -28 -32 205 -68 88 -14 204 -32 257 -41 54 -9 102 -14 107 -12 18 6 -261 258 -284 257 -11 -1 -74 -30 -140 -66z"></path><path id="pC2DkXJeP" d="M9045 4291 c-3 -5 -2 -12 2 -14 17 -10 354 -60 360 -53 16 15 -22 26 -173 50 -184 29 -181 29 -189 17z"></path><path id="peMGRWZRI" d="M9490 4216 c0 -15 -1 -15 208 -47 105 -16 146 -19 154 -11 15 15 12 16 -174 46 -182 30 -188 31 -188 12z"></path><path id="p11DnHO3Up" d="M10400 4075 c0 -16 11 -20 95 -35 93 -16 856 -140 866 -140 19 0 8 30 -13 34 -25 6 -258 43 -663 106 -143 22 -266 43 -272 45 -7 2 -13 -2 -13 -10z"></path><path id="pD89IRK4v" d="M7265 4071 c-11 -5 -51 -14 -89 -21 -64 -12 -74 -18 -149 -84 -44 -39 -105 -92 -136 -118 -31 -26 -54 -50 -52 -55 6 -12 259 -108 301 -115 25 -3 40 28 116 242 56 157 56 170 9 151z"></path><path id="p1CRdFw83u" d="M7385 3988 c-2 -7 -31 -90 -63 -184 -59 -171 -59 -171 24 -198 78 -25 85 -26 119 -11 21 8 58 30 84 49 49 36 79 49 198 85 40 12 75 26 78 31 7 11 -53 176 -68 188 -14 11 -275 52 -330 52 -21 0 -40 -6 -42 -12z"></path><path id="pvCZUoMXz" d="M12152 3784 c2 -13 13 -20 33 -22 17 -2 327 -53 690 -114 363 -60 712 -118 775 -128 63 -10 346 -57 629 -104 337 -57 518 -83 524 -77 7 7 2 14 -14 21 -20 9 -2432 415 -2587 435 -49 7 -54 5 -50 -11z"></path><path id="pmSYEr6R" d="M6749 3743 c-42 -36 -37 -49 24 -58 182 -25 239 -31 243 -23 6 9 -23 23 -149 72 -88 34 -88 34 -118 9z"></path></g></g></svg>