<?xml version="1.0" encoding="UTF-8"?>
<!-- Created with Inkscape (http://www.inkscape.org/) -->
<svg width="315.45" height="320.48" version="1.1" viewBox="0 0 315.45 320.48" xmlns="http://www.w3.org/2000/svg" xmlns:cc="http://creativecommons.org/ns#" xmlns:dc="http://purl.org/dc/elements/1.1/" xmlns:rdf="http://www.w3.org/1999/02/22-rdf-syntax-ns#">
 <metadata>
  <rdf:RDF>
   <cc:Work rdf:about="">
    <dc:format>image/svg+xml</dc:format>
    <dc:type rdf:resource="http://purl.org/dc/dcmitype/StillImage"/>
    <dc:title/>
   </cc:Work>
  </rdf:RDF>
 </metadata>
 <rect x="10.688" y="31.072" width="17.73" height="298.55" rx="3.4376" ry="3.4376" fill="#8b8891"/>
 <path d="m88.484 30.57c74.217-33.573 113.5 0.88848 137.49 19.787 22.906 18.053 44.39 34.303 78.939 30.11 18.913 32.843 4.6528 53.386-0.58585 60.626-52.656 15.905-74.093 7.8883-80.199 5.9048-31.107-10.104-53.67-18.765-70.877-17.943-31.102 1.4871-53.393 15.366-65.901 21.051 6.3452-19.032 30.988-56.355 1.139-119.54z" fill="#f2f2f2"/>
 <g transform="rotate(1.0942 -115.9 153.85)" fill="#e5303e">
  <path d="m86.092 26.691c-27.658 36.124-10.751 113.26 1.1445 119.54 5.9806-19.15 29.905-56.936-1.1445-119.54z"/>
  <path d="m145.76 11.455c-2.8505 0.01324-5.7818 0.15086-8.7891 0.41016 24.303 51.487 13.466 91.23 2.9434 113.65 4.0859-0.74161 8.354-1.3009 12.814-1.5996 12.819-0.85854 28.73 3.5064 48.967 9.7227 7.7054-26.992 19.144-63.813-0.4004-105.89-14.367-8.8077-32.405-16.406-55.535-16.299z"/>
  <path d="m257.84 65.828c7.1548 44.412 3.4591 64.29-1.5195 77.594 11.914-0.96521 27.504-3.8318 47.682-10.35 5.0995-7.3388 18.965-28.151-0.57226-60.627-17.978 2.5309-32.504-0.57337-45.59-6.6172z"/>
 </g>
 <path d="m312.96 100.09c-1.4404 11.527-6.8975 19.333-9.7289 23.246-52.656 15.905-74.093 7.8886-80.199 5.9051-31.107-10.104-53.67-18.765-70.877-17.943-24.176 1.156-42.951 9.7656-56.023 16.228-3.2589 9.3429-6.8626 16.806-8.7862 22.576 12.508-5.6851 34.801-19.565 65.902-21.052 17.207-0.82267 39.769 7.8402 70.875 17.945 6.106 1.9834 27.543 10 80.199-5.9051 4.1022-5.6695 13.733-19.498 8.638-41.001z" fill-opacity=".069652"/>
 <path d="m88.483 30.571-57.026 65.554 55.887 53.981c0.98438-2.9526 2.4295-6.4016 4.0229-10.263l-47.049-43.187 48.387-56.426c-1.2694-3.1518-2.6678-6.3675-4.2225-9.6586z" fill="#8b8891" fill-opacity=".99608"/>
 <path d="m88.483 30.571c0.73915 1.5646 1.4377 3.109 2.1091 4.6407-0.67329-1.5326-1.3701-3.0765-2.1091-4.6407zm2.2831 5.0367c0.67749 1.5557 1.3254 3.0973 1.9394 4.6219-0.61407-1.5246-1.2598-3.0647-1.9394-4.6219zm1.9394 4.6219-8.7551 10.208c12.35 38.747 6.1153 61.927-0.53093 82.11l7.948 7.2957c8.1422-19.732 20.658-51.644 1.338-99.614zm-2.7007 102.95c-0.38461 0.93988-0.78175 1.9107-1.1277 2.7895 0.3505-0.88935 0.73681-1.8356 1.1277-2.7895zm-1.5652 3.9142c-0.11883 0.31062-0.24171 0.62692-0.35374 0.92896 0.11252-0.3032 0.23446-0.61749 0.35374-0.92896zm-3.6844 0.51763c0.8703 1.1726 1.7389 2.0311 2.5894 2.5011z" fill-opacity=".069652"/>
 <circle cx="19.553" cy="19.553" r="18.603" fill="#58565d"/>
 <rect transform="scale(-1,1)" x="-37.099" y="74.54" width="35.092" height="39.464" rx="4.4487" ry="4.4487" fill="#58565d" fill-opacity=".99804"/>
 <path d="m20.751 1.0103v328.62h4.2305c1.9044 0 3.4375-1.5331 3.4375-3.4375v-212.18h4.2324c2.4646 0 4.4492-1.9847 4.4492-4.4492v-30.566c0-2.4646-1.9847-4.4492-4.4492-4.4492h-4.2324v-38.658a18.603 18.603 0 0 0 9.7383-16.328 18.603 18.603 0 0 0-17.406-18.543z" fill-opacity=".069652"/>
</svg>
